<?xml version="1.0" standalone="no"?>
<!DOCTYPE svg PUBLIC "-//W3C//DTD SVG 20010904//EN"
 "http://www.w3.org/TR/2001/REC-SVG-20010904/DTD/svg10.dtd">
<svg version="1.0" xmlns="http://www.w3.org/2000/svg"
 width="293.000000pt" height="293.000000pt" viewBox="0 0 293.000000 293.000000"
 preserveAspectRatio="xMidYMid meet">
<metadata>
Created by potrace 1.14, written by Peter Selinger 2001-2017
</metadata>
<g transform="translate(0.000000,293.000000) scale(0.100000,-0.100000)"
fill="#000000" stroke="none">
<path d="M1433 2014 c-65 -14 -134 -44 -167 -73 -24 -21 -56 -84 -56 -111 0
-19 6 -20 153 -20 133 0 158 3 192 20 100 51 278 -1 225 -65 -10 -12 -40 -15
-135 -15 -93 0 -125 -3 -134 -14 -7 -9 -11 -42 -9 -88 l3 -73 126 -6 c146 -6
183 -20 177 -67 -5 -47 -55 -64 -168 -59 -94 4 -94 5 -126 41 l-32 37 -148 -3
-149 -3 3 -35 c4 -36 34 -104 52 -115 29 -18 0 -25 -101 -25 l-111 0 16 23
c75 102 74 224 -1 308 -41 45 -73 64 -144 85 -48 15 -231 36 -252 29 -7 -2
-52 -6 -100 -10 l-88 -6 3 28 3 28 298 3 297 2 0 90 0 90 -394 0 -393 0 -7
-32 c-19 -91 -66 -355 -66 -371 0 -17 9 -18 162 -13 90 3 200 8 245 12 130 9
201 -33 178 -106 -11 -34 -64 -50 -166 -50 l-92 0 -33 35 -33 35 -150 0 c-114
0 -151 -3 -152 -12 -5 -54 39 -146 81 -171 21 -13 30 -26 31 -45 1 -26 1 -26
11 6 9 28 15 32 44 32 24 0 34 -5 34 -15 0 -8 7 -15 15 -15 24 0 18 -18 -15
-42 -38 -28 -38 -39 -1 -25 17 6 32 21 36 34 3 13 10 23 15 23 5 0 7 8 4 18
-5 15 -4 15 9 -1 13 -16 19 -17 39 -6 13 7 27 12 31 11 4 -1 17 3 28 9 15 7
24 7 34 -1 10 -8 14 -8 18 2 7 19 24 -1 33 -36 5 -21 4 -27 -5 -22 -6 4 -11 2
-11 -4 0 -7 -8 -9 -20 -5 -11 4 -20 2 -20 -4 0 -6 8 -12 18 -12 9 -1 28 -3 42
-4 32 -3 67 30 51 49 -16 19 13 56 30 39 7 -7 22 -13 34 -13 17 -1 18 -2 5
-13 -24 -19 -41 -65 -28 -73 7 -4 8 -3 4 4 -4 7 -2 12 3 12 6 0 11 -11 11 -25
0 -14 4 -25 9 -25 5 0 7 -10 3 -22 -4 -18 -2 -20 19 -15 13 4 27 7 32 7 4 0 7
7 7 15 0 8 7 15 15 15 8 0 15 -4 15 -9 0 -5 -7 -14 -15 -21 -19 -16 -19 -30
-1 -30 7 0 19 -7 26 -15 10 -12 10 -15 -1 -15 -11 0 -12 -2 -1 -9 7 -4 20 -26
27 -47 8 -21 14 -33 15 -26 0 6 9 12 20 12 17 0 19 -5 14 -24 -7 -29 27 -68
63 -72 19 -2 22 1 19 22 -3 13 -8 29 -11 35 -4 6 6 4 22 -4 23 -12 32 -13 46
-2 18 13 23 35 7 35 -5 0 -13 -7 -18 -17 -12 -20 -44 -10 -36 12 3 8 1 15 -5
15 -6 0 -11 5 -11 11 0 6 6 9 14 6 8 -3 19 0 25 7 16 19 61 17 62 -3 0 -10 2
-11 6 -3 13 32 53 -10 53 -57 0 -20 25 -35 41 -25 17 10 9 26 -12 21 -16 -4
-18 -3 -8 9 8 10 8 14 0 14 -19 0 -12 28 11 44 15 11 18 19 11 28 -6 8 -7 21
-2 33 7 19 8 19 8 -3 1 -16 6 -22 19 -20 9 1 23 -1 30 -5 14 -10 59 2 46 12
-5 3 -16 15 -24 26 -13 18 -13 19 0 8 19 -15 55 9 47 31 -4 10 -1 13 7 10 8
-3 23 4 34 16 12 13 22 17 26 11 4 -5 13 -8 21 -5 8 4 17 -1 21 -9 3 -10 12
-13 22 -9 15 5 15 3 4 -11 -11 -13 -24 -15 -60 -10 -33 4 -43 3 -38 -5 4 -7 1
-15 -7 -17 -16 -7 -14 -98 3 -103 5 -2 10 -15 10 -28 0 -17 6 -24 20 -24 15 0
20 7 20 25 0 14 4 25 8 25 12 0 11 32 -2 50 -6 8 -1 7 11 -4 13 -10 20 -22 17
-27 -2 -4 5 -13 16 -19 19 -10 20 -10 11 8 -7 13 -6 26 5 47 10 20 13 42 8 68
-6 36 -5 38 17 35 16 -2 24 -10 24 -23 0 -11 10 -24 23 -30 29 -13 28 -25 -3
-25 -22 0 -24 -3 -15 -25 5 -13 5 -27 1 -29 -18 -12 -19 -57 0 -66 26 -14 33
-12 19 5 -10 11 -10 15 0 15 8 0 10 12 7 35 -3 25 -1 35 7 32 6 -2 10 -11 10
-20 -1 -9 4 -13 11 -11 7 3 16 1 19 -5 5 -7 14 -7 29 1 12 6 29 14 37 18 8 4
15 16 15 26 1 25 14 46 26 39 5 -3 6 1 3 9 -7 19 -20 21 -27 4 -4 -10 -8 -10
-15 1 -9 12 -13 13 -26 1 -9 -7 -19 -11 -21 -8 -10 9 7 38 21 38 8 0 14 5 14
11 0 16 -45 6 -46 -11 -2 -32 -5 -33 -25 -11 -13 14 -18 26 -12 30 6 3 14 17
18 30 6 21 9 22 17 7 5 -9 13 -14 19 -11 5 4 9 1 9 -4 0 -6 9 -11 20 -11 13 0
20 7 20 19 0 11 10 28 23 38 13 10 24 21 25 26 1 4 5 15 10 23 10 18 62 28 62
12 0 -6 7 -7 16 -4 25 10 36 -4 18 -22 -10 -10 -29 -15 -46 -13 -31 3 -49 -22
-29 -42 9 -9 16 -9 31 1 12 7 21 8 25 2 4 -6 13 -5 24 2 29 18 71 2 71 -27 0
-14 5 -25 10 -25 6 0 10 9 10 19 0 11 4 21 8 23 4 2 18 18 32 37 21 30 25 32
35 17 11 -14 14 -13 25 14 13 31 55 45 44 15 -4 -8 -10 -15 -15 -15 -4 0 -2
-14 5 -32 15 -34 53 -55 70 -38 13 13 29 13 21 0 -3 -5 0 -7 9 -4 20 7 33 -35
15 -47 -11 -8 -10 -12 5 -24 24 -18 36 -19 36 -2 0 7 9 13 20 14 11 1 20 -4
20 -13 0 -8 3 -13 8 -13 19 3 25 -2 12 -11 -11 -8 -8 -10 15 -8 40 3 57 -9 50
-33 -4 -13 -2 -19 9 -19 20 0 20 17 2 53 -13 23 -13 27 0 27 8 0 14 6 14 13 1
28 21 -25 23 -61 1 -22 5 -38 9 -36 14 9 18 -15 5 -28 -25 -24 -34 -52 -30
-87 3 -24 0 -37 -11 -43 -9 -5 -16 -19 -16 -32 0 -21 4 -23 48 -22 43 1 47 3
50 28 2 19 -2 28 -16 32 -14 5 -18 13 -15 26 3 11 0 26 -6 34 -9 10 -8 15 2
19 15 6 87 -17 96 -31 3 -5 19 -10 36 -10 16 0 31 -5 33 -11 2 -6 8 -11 13
-11 6 0 8 4 5 9 -8 12 19 33 30 23 4 -4 2 1 -5 11 -7 9 -26 17 -41 17 -31 0
-49 34 -23 44 24 10 33 7 33 -9 0 -19 50 -16 58 4 3 8 -5 22 -17 32 -20 16
-21 20 -7 25 9 3 23 4 31 0 21 -8 19 0 -7 26 -16 16 -32 21 -60 19 -37 -2 -38
-1 -34 23 3 14 8 31 12 37 5 8 3 9 -6 4 -10 -6 -12 -4 -7 9 6 14 3 15 -13 6
-17 -9 -22 -7 -29 12 -7 20 -5 23 15 26 14 2 32 14 41 28 8 14 18 23 20 20 3
-2 13 4 23 14 13 13 31 17 73 15 30 -1 60 -6 67 -10 7 -4 16 -1 21 6 5 8 9
166 9 352 l0 337 -117 0 -118 0 -20 -37 c-28 -53 -84 -81 -180 -90 l-80 -8 0
-90 0 -90 110 -5 110 -5 3 -172 2 -173 -150 0 c-119 0 -156 -3 -174 -16 -16
-10 -26 -12 -31 -5 -3 6 -16 11 -27 11 -21 0 -21 0 -2 23 36 40 49 79 49 141
0 77 -24 120 -84 150 l-43 23 35 21 c53 31 72 66 71 131 -2 116 -59 168 -219
197 -93 17 -381 16 -462 -2z m-486 -764 c11 0 8 -6 -10 -20 -14 -11 -27 -20
-30 -20 -2 0 1 19 7 42 8 31 12 36 14 20 2 -12 10 -22 19 -22z m1232 1 c17
-13 19 -18 7 -18 -9 0 -16 4 -16 9 0 4 -7 8 -15 8 -8 0 -15 5 -15 10 0 15 12
12 39 -9z m-959 -27 c0 -1 -3 -9 -6 -18 -8 -21 -24 -21 -24 0 0 8 -4 12 -10 9
-5 -3 -10 -1 -10 4 0 6 11 10 25 9 14 -1 25 -3 25 -4z m1025 -4 c-3 -5 -10
-10 -16 -10 -5 0 -9 5 -9 10 0 6 7 10 16 10 8 0 12 -4 9 -10z m-1395 -30 c0
-20 -16 -17 -27 6 -10 21 -9 23 8 13 10 -5 19 -14 19 -19z m81 -13 c-6 -8 -22
-12 -36 -9 -36 6 -31 25 5 20 17 -3 30 0 30 5 0 6 3 7 6 4 4 -4 2 -13 -5 -20z
m245 -2 c4 -8 10 -12 15 -9 5 3 9 0 9 -5 0 -6 -4 -11 -9 -11 -5 0 -24 -3 -42
-6 -28 -4 -31 -3 -16 6 9 6 17 18 17 25 0 20 19 19 26 0z m1330 -4 c-13 -15
-14 -20 -4 -24 7 -2 10 -8 5 -12 -4 -5 -13 -3 -19 3 -9 9 -7 16 7 32 10 11 20
20 23 20 3 0 -3 -9 -12 -19z m-1486 -1 c11 -6 17 -17 14 -25 -9 -22 -24 -18
-24 5 0 21 -15 27 -25 10 -9 -14 -35 -12 -35 3 0 16 45 20 70 7z m41 -23 c-8
-8 -11 -7 -11 4 0 20 13 34 18 19 3 -7 -1 -17 -7 -23z m-69 -22 c0 -5 -5 -11
-11 -13 -6 -2 -11 4 -11 13 0 9 5 15 11 13 6 -2 11 -8 11 -13z"/>
<path d="M2721 1269 c-13 -5 -33 -7 -43 -3 -17 5 -18 3 -9 -14 6 -11 20 -22
31 -25 11 -3 18 -1 15 3 -3 5 4 11 15 15 11 3 20 13 20 21 0 8 -1 14 -2 13 -2
0 -14 -5 -27 -10z"/>
<path d="M2736 1212 c-3 -5 1 -15 9 -22 16 -14 20 -3 6 19 -5 8 -11 9 -15 3z"/>
<path d="M2585 1203 c-16 -12 -36 -63 -25 -63 6 0 19 9 31 21 14 14 29 19 45
16 19 -3 24 -1 22 12 -3 17 -55 27 -73 14z"/>
<path d="M556 1167 c3 -10 9 -15 12 -12 3 3 0 11 -7 18 -10 9 -11 8 -5 -6z"/>
<path d="M1787 1156 c-3 -8 1 -17 9 -20 9 -3 12 -10 9 -16 -3 -5 0 -10 8 -10
7 0 14 7 14 15 0 8 -4 15 -9 15 -4 0 -8 7 -8 15 0 19 -16 20 -23 1z"/>
<path d="M2130 1144 c0 -8 5 -12 10 -9 6 4 8 11 5 16 -9 14 -15 11 -15 -7z"/>
<path d="M2665 1149 c-4 -6 -5 -12 -2 -15 2 -3 7 2 10 11 7 17 1 20 -8 4z"/>
<path d="M1732 1124 c10 -10 20 -15 24 -12 3 4 -5 12 -18 18 -22 12 -22 12 -6
-6z"/>
<path d="M718 1123 c-9 -2 -16 -12 -15 -22 1 -12 7 -17 19 -13 10 2 15 8 12
13 -3 5 0 9 5 9 6 0 11 5 11 10 0 10 -4 11 -32 3z"/>
<path d="M635 1110 c-3 -5 1 -10 10 -10 9 0 13 5 10 10 -3 6 -8 10 -10 10 -2
0 -7 -4 -10 -10z"/>
<path d="M1690 1100 c0 -5 5 -10 10 -10 6 0 10 5 10 10 0 6 -4 10 -10 10 -5 0
-10 -4 -10 -10z"/>
<path d="M1748 1069 c8 -22 24 -27 30 -10 2 5 -6 15 -17 21 -18 9 -20 8 -13
-11z"/>
<path d="M600 1064 c0 -8 5 -12 10 -9 6 4 8 11 5 16 -9 14 -15 11 -15 -7z"/>
<path d="M1270 1070 c0 -5 5 -10 10 -10 6 0 10 5 10 10 0 6 -4 10 -10 10 -5 0
-10 -4 -10 -10z"/>
<path d="M2247 1032 c-23 -11 -26 -16 -16 -28 6 -8 8 -14 4 -14 -4 0 3 -9 16
-20 13 -10 19 -19 12 -20 -7 0 -10 -7 -6 -16 3 -8 15 -14 27 -12 26 4 35 38 9
39 -10 0 -4 5 13 10 26 7 30 13 27 33 -7 33 -48 47 -86 28z"/>
<path d="M610 1025 c0 -8 4 -15 10 -15 5 0 7 7 4 15 -4 8 -8 15 -10 15 -2 0
-4 -7 -4 -15z"/>
<path d="M1238 1033 c-27 -2 -48 -9 -48 -15 0 -5 7 -8 15 -4 18 7 20 -5 3 -22
-16 -16 4 -37 26 -29 18 7 22 27 6 27 -5 0 -10 5 -10 11 0 5 5 7 10 4 6 -3 10
-2 10 3 0 6 8 8 19 5 11 -3 21 2 24 11 4 9 3 15 -1 14 -4 -1 -28 -3 -54 -5z"/>
<path d="M1706 1032 c-2 -4 4 -13 14 -19 15 -10 17 -9 13 8 -5 20 -18 25 -27
11z"/>
<path d="M1545 1010 c-6 -10 1 -14 43 -23 23 -5 23 -5 6 14 -19 21 -39 25 -49
9z"/>
<path d="M1408 985 c-21 -28 -23 -39 -6 -29 7 5 26 7 43 6 24 -1 27 0 13 8
-10 6 -21 17 -25 24 -6 11 -12 9 -25 -9z"/>
<path d="M2730 995 c0 -8 5 -15 10 -15 6 0 10 7 10 15 0 8 -4 15 -10 15 -5 0
-10 -7 -10 -15z"/>
<path d="M1284 975 c-8 -19 2 -30 32 -39 15 -5 24 -2 28 10 5 13 4 14 -7 6
-14 -12 -27 -7 -27 10 0 5 5 6 11 2 7 -4 10 -1 7 7 -7 20 -37 23 -44 4z"/>
<path d="M1515 960 c3 -5 8 -10 11 -10 2 0 4 5 4 10 0 6 -5 10 -11 10 -5 0 -7
-4 -4 -10z"/>
<path d="M2047 953 c-12 -11 -8 -21 15 -43 29 -27 38 -25 38 9 0 33 -33 54
-53 34z"/>
<path d="M1610 940 c0 -5 5 -10 10 -10 6 0 10 5 10 10 0 6 -4 10 -10 10 -5 0
-10 -4 -10 -10z"/>
<path d="M1420 930 c0 -6 0 -12 0 -15 0 -3 3 -5 6 -4 4 0 11 -5 15 -13 6 -9 9
-7 9 8 0 12 -7 24 -15 28 -8 3 -15 1 -15 -4z"/>
<path d="M2640 930 c-8 -5 -12 -12 -9 -15 4 -3 12 1 19 10 14 17 11 19 -10 5z"/>
<path d="M2460 898 c-18 -42 -24 -78 -11 -78 5 0 16 -3 25 -6 12 -5 16 1 16
24 0 19 8 35 23 46 22 15 22 16 3 31 -29 22 -39 19 -56 -17z"/>
<path d="M910 905 c0 -8 7 -15 15 -15 9 0 12 6 9 15 -4 8 -10 15 -15 15 -5 0
-9 -7 -9 -15z"/>
<path d="M1479 903 c21 -16 36 -16 50 1 9 11 4 13 -28 12 -33 0 -36 -2 -22
-13z"/>
<path d="M1560 913 c0 -5 4 -14 9 -21 7 -11 9 -11 14 1 3 8 3 18 0 21 -9 8
-23 7 -23 -1z"/>
<path d="M1090 899 c0 -5 5 -7 10 -4 6 3 10 8 10 11 0 2 -4 4 -10 4 -5 0 -10
-5 -10 -11z"/>
<path d="M1337 903 c-4 -3 -7 -11 -7 -17 0 -6 5 -5 12 2 6 6 9 14 7 17 -3 3
-9 2 -12 -2z"/>
<path d="M2710 895 c0 -8 5 -15 10 -15 6 0 10 7 10 15 0 8 -4 15 -10 15 -5 0
-10 -7 -10 -15z"/>
<path d="M2595 889 c-10 -15 1 -23 20 -15 9 3 13 10 10 16 -8 13 -22 13 -30
-1z"/>
<path d="M1400 880 c8 -5 20 -10 25 -10 6 0 3 5 -5 10 -8 5 -19 10 -25 10 -5
0 -3 -5 5 -10z"/>
<path d="M1337 868 c-10 -5 -25 -7 -32 -4 -8 3 -19 -3 -25 -14 -9 -17 -7 -20
14 -20 13 0 34 9 47 19 27 22 24 35 -4 19z"/>
<path d="M980 846 c0 -8 4 -17 9 -20 5 -4 7 3 4 14 -6 23 -13 26 -13 6z"/>
<path d="M1135 840 c-8 -13 3 -30 21 -30 18 0 18 14 0 29 -10 8 -16 9 -21 1z"/>
<path d="M1390 841 c0 -6 5 -13 10 -16 6 -3 10 1 10 9 0 9 -4 16 -10 16 -5 0
-10 -4 -10 -9z"/>
<path d="M2705 840 c-3 -5 3 -10 15 -10 12 0 18 5 15 10 -3 6 -10 10 -15 10
-5 0 -12 -4 -15 -10z"/>
<path d="M927 816 c-13 -10 -15 -16 -7 -21 7 -4 22 2 33 14 25 24 4 30 -26 7z"/>
<path d="M1553 810 c-3 -12 -11 -19 -19 -16 -8 3 -11 0 -8 -8 6 -16 64 -30 75
-19 4 5 9 19 11 32 2 20 -2 25 -25 28 -22 3 -30 -1 -34 -17z"/>
<path d="M1420 811 c0 -6 5 -13 10 -16 6 -3 10 1 10 9 0 9 -4 16 -10 16 -5 0
-10 -4 -10 -9z"/>
<path d="M1330 800 c0 -5 5 -10 10 -10 6 0 10 5 10 10 0 6 -4 10 -10 10 -5 0
-10 -4 -10 -10z"/>
<path d="M1830 800 c0 -5 5 -10 10 -10 6 0 10 5 10 10 0 6 -4 10 -10 10 -5 0
-10 -4 -10 -10z"/>
<path d="M875 780 c3 -5 8 -10 11 -10 2 0 4 5 4 10 0 6 -5 10 -11 10 -5 0 -7
-4 -4 -10z"/>
<path d="M1350 776 c0 -2 7 -7 16 -10 8 -3 12 -2 9 4 -6 10 -25 14 -25 6z"/>
<path d="M1701 773 c-1 -7 -8 -13 -16 -13 -8 0 -15 -9 -15 -21 0 -16 4 -19 23
-13 29 9 29 8 18 35 -5 13 -10 18 -10 12z"/>
<path d="M2060 760 c0 -5 7 -10 15 -10 8 0 15 5 15 10 0 6 -7 10 -15 10 -8 0
-15 -4 -15 -10z"/>
<path d="M2620 739 c0 -5 5 -7 10 -4 6 3 10 8 10 11 0 2 -4 4 -10 4 -5 0 -10
-5 -10 -11z"/>
<path d="M1325 730 c3 -5 8 -10 11 -10 2 0 4 5 4 10 0 6 -5 10 -11 10 -5 0 -7
-4 -4 -10z"/>
<path d="M1497 732 c-24 -3 -28 -8 -25 -29 3 -30 31 -39 53 -16 16 15 20 40 8
45 -5 2 -21 2 -36 0z"/>
<path d="M630 720 c0 -5 9 -10 20 -10 11 0 20 5 20 10 0 6 -9 10 -20 10 -11 0
-20 -4 -20 -10z"/>
<path d="M1360 720 c19 -13 30 -13 30 0 0 6 -10 10 -22 10 -19 0 -20 -2 -8
-10z"/>
<path d="M2198 723 c7 -3 16 -2 19 1 4 3 -2 6 -13 5 -11 0 -14 -3 -6 -6z"/>
<path d="M2290 716 c0 -9 0 -19 -1 -23 0 -4 4 -9 10 -11 14 -5 14 35 1 43 -5
3 -10 -1 -10 -9z"/>
<path d="M920 706 c0 -9 5 -16 10 -16 6 0 10 4 10 9 0 6 -4 13 -10 16 -5 3
-10 -1 -10 -9z"/>
<path d="M1570 711 c0 -5 8 -15 18 -22 15 -12 16 -12 5 2 -7 9 -10 19 -6 22 3
4 1 7 -5 7 -7 0 -12 -4 -12 -9z"/>
<path d="M2098 713 c7 -3 16 -2 19 1 4 3 -2 6 -13 5 -11 0 -14 -3 -6 -6z"/>
<path d="M1294 636 c-11 -12 -8 -36 6 -36 11 0 19 25 12 37 -5 7 -10 7 -18 -1z"/>
<path d="M2260 630 c0 -5 5 -10 11 -10 5 0 7 5 4 10 -3 6 -8 10 -11 10 -2 0
-4 -4 -4 -10z"/>
<path d="M1650 593 c0 -12 5 -25 10 -28 13 -8 13 15 0 35 -8 12 -10 11 -10 -7z"/>
<path d="M1810 580 c0 -11 5 -20 10 -20 6 0 10 9 10 20 0 11 -4 20 -10 20 -5
0 -10 -9 -10 -20z"/>
<path d="M1350 580 c0 -5 7 -10 16 -10 8 0 12 5 9 10 -3 6 -10 10 -16 10 -5 0
-9 -4 -9 -10z"/>
<path d="M1330 565 c0 -23 18 -38 36 -30 18 8 18 8 -1 13 -11 2 -23 9 -27 16
-4 6 -8 7 -8 1z"/>
<path d="M2182 538 c6 -18 28 -21 28 -4 0 9 -7 16 -16 16 -9 0 -14 -5 -12 -12z"/>
<path d="M2142 451 c2 -7 7 -12 11 -12 12 1 9 15 -3 20 -7 2 -11 -2 -8 -8z"/>
<path d="M1570 440 c0 -5 5 -10 11 -10 5 0 7 5 4 10 -3 6 -8 10 -11 10 -2 0
-4 -4 -4 -10z"/>
<path d="M1285 341 c-6 -11 9 -23 19 -14 9 9 7 23 -3 23 -6 0 -12 -4 -16 -9z"/>
<path d="M150 305 c0 -3 7 -17 16 -31 13 -19 20 -22 30 -13 10 8 14 8 14 0 0
-6 5 -11 11 -11 7 0 8 7 4 18 -4 9 -8 23 -8 30 0 11 -67 18 -67 7z"/>
<path d="M230 290 c0 -18 2 -19 20 -8 11 7 20 16 20 20 0 5 -9 8 -20 8 -13 0
-20 -7 -20 -20z"/>
<path d="M284 299 c-3 -5 0 -9 6 -9 8 0 8 -6 0 -20 -10 -19 -8 -20 60 -20 54
0 69 3 64 13 -6 10 -4 10 7 0 19 -19 39 -16 39 6 0 11 6 22 13 24 6 3 -4 5
-23 5 -19 0 -27 -2 -17 -5 9 -2 14 -9 11 -14 -4 -6 -13 -4 -25 7 -20 18 -125
28 -135 13z m106 -25 c0 -11 -5 -14 -16 -10 -9 3 -20 6 -25 6 -21 0 -7 16 16
18 17 1 25 -3 25 -14z"/>
<path d="M495 289 c5 -14 2 -25 -6 -30 -9 -6 2 -9 31 -7 35 2 46 7 48 22 5 23
-14 36 -51 36 -24 0 -27 -3 -22 -21z m49 5 c25 -10 19 -34 -9 -34 -24 0 -34
18 -18 33 8 8 8 8 27 1z"/>
<path d="M590 295 c10 -12 10 -18 0 -30 -11 -13 2 -15 104 -15 91 0 116 3 110
13 -6 10 -4 10 7 0 16 -16 49 -17 49 -2 0 5 -4 7 -10 4 -5 -3 -10 3 -10 14 0
13 -7 21 -17 22 -10 0 -26 2 -35 4 -10 2 -20 -1 -24 -6 -3 -5 0 -9 6 -9 21 0
4 -23 -18 -25 -23 -2 -31 20 -9 28 6 3 0 6 -15 6 -40 1 -43 0 -40 -21 4 -21
-8 -24 -26 -6 -9 9 -12 9 -12 0 0 -7 -9 -12 -21 -12 -18 0 -20 4 -15 25 5 21
3 25 -15 25 -18 0 -19 -2 -9 -15z"/>
<path d="M1885 280 c3 -5 10 -10 16 -10 5 0 9 5 9 10 0 6 -7 10 -16 10 -8 0
-12 -4 -9 -10z"/>
</g>
</svg>
