<?xml version="1.0" standalone="no"?>
<!DOCTYPE svg PUBLIC "-//W3C//DTD SVG 20010904//EN"
 "http://www.w3.org/TR/2001/REC-SVG-20010904/DTD/svg10.dtd">
<svg version="1.0" xmlns="http://www.w3.org/2000/svg"
 width="384.000000pt" height="384.000000pt" viewBox="0 0 384.000000 384.000000"
 preserveAspectRatio="xMidYMid meet">
<metadata>
Created by potrace 1.14, written by Peter Selinger 2001-2017
</metadata>
<g transform="translate(0.000000,384.000000) scale(0.100000,-0.100000)"
fill="#000000" stroke="none">
<path d="M1895 2626 c-33 -7 -69 -16 -80 -20 -11 -5 -39 -17 -61 -26 -87 -37
-162 -136 -152 -201 l3 -24 194 0 c130 0 198 3 205 11 37 36 178 51 251 26 51
-18 65 -29 65 -57 0 -43 -22 -49 -180 -50 -109 0 -151 -4 -164 -14 -13 -11
-16 -32 -16 -106 0 -62 4 -96 13 -103 6 -5 80 -12 163 -14 137 -4 153 -6 182
-27 44 -31 44 -74 0 -101 -17 -10 -35 -17 -39 -14 -4 2 -10 0 -14 -6 -8 -12
-182 -13 -189 -1 -4 5 -18 8 -32 6 -19 -2 -34 8 -62 41 l-36 44 -181 0 c-99 0
-186 -4 -194 -9 -9 -6 -11 -16 -7 -27 4 -11 10 -30 12 -44 7 -34 42 -106 60
-120 7 -7 14 -16 14 -21 0 -5 -60 -9 -134 -9 -128 0 -134 1 -129 19 3 11 11
22 18 25 7 2 25 31 40 62 25 53 27 65 22 139 -6 90 -24 132 -83 196 -36 38
-108 80 -144 84 -8 1 -28 7 -43 13 -16 7 -41 12 -56 12 -15 0 -31 3 -35 7 -4
4 -35 8 -69 9 -34 0 -74 4 -89 8 -15 4 -33 4 -40 0 -7 -5 -42 -10 -78 -11 -36
-2 -87 -6 -113 -9 l-48 -6 3 33 3 34 370 5 370 5 0 115 0 115 -490 0 -489 0
-9 -45 c-4 -25 -12 -54 -17 -65 -5 -11 -16 -74 -25 -140 -9 -66 -20 -127 -25
-136 -4 -8 -11 -46 -15 -83 l-7 -67 208 5 c115 3 255 9 311 12 92 5 107 3 152
-17 68 -32 87 -75 55 -124 -23 -36 -76 -49 -199 -50 l-110 -1 -42 43 -41 43
-191 0 c-175 0 -191 -1 -192 -17 -2 -30 3 -67 9 -78 4 -5 7 -12 7 -15 5 -32
54 -103 86 -124 31 -21 39 -32 39 -56 0 -42 15 -37 26 8 8 32 13 37 42 40 27
3 35 -1 39 -17 3 -12 14 -21 24 -21 29 0 23 -16 -21 -51 -46 -37 -44 -52 5
-36 26 8 37 18 46 44 6 18 15 33 19 33 5 0 7 8 4 18 -4 12 0 11 12 -5 l16 -23
29 21 c16 11 34 17 39 14 6 -4 22 0 35 9 20 13 25 13 35 1 16 -20 30 -19 30 1
0 24 26 0 34 -32 8 -31 -13 -55 -43 -47 -15 4 -21 1 -21 -11 0 -9 9 -17 23
-18 12 0 36 -2 52 -3 41 -4 84 39 67 66 -9 14 -8 22 6 39 16 20 19 21 31 6 7
-9 23 -16 35 -16 20 -1 20 -2 4 -14 -10 -7 -18 -18 -18 -25 0 -6 -7 -22 -15
-35 -14 -21 -14 -24 0 -30 9 -3 13 -2 10 4 -3 6 -1 10 4 10 6 0 11 -13 11 -30
0 -16 4 -30 10 -30 5 0 7 -7 4 -15 -4 -8 -4 -21 -1 -29 8 -21 77 3 77 26 0 10
7 18 15 18 8 0 15 -6 15 -14 0 -7 -7 -19 -15 -26 -22 -18 -18 -38 8 -42 16 -2
21 -9 20 -26 -2 -12 2 -22 7 -22 5 0 15 -19 21 -43 13 -43 29 -71 29 -49 0 7
12 12 27 12 21 0 24 -3 15 -12 -17 -17 -15 -48 4 -55 8 -3 19 -15 24 -27 6
-17 17 -22 44 -23 37 -1 37 -1 31 34 -4 29 -2 34 10 29 8 -3 21 -8 28 -11 19
-7 61 30 54 49 -9 22 -24 20 -32 -5 -10 -30 -51 -22 -47 9 2 12 -2 22 -7 22
-6 0 -11 5 -11 11 0 6 8 8 18 5 11 -4 25 1 36 12 20 23 66 18 66 -6 0 -12 3
-13 12 -4 7 7 17 12 24 12 14 0 34 -51 34 -85 0 -16 8 -25 25 -29 14 -4 30 -4
35 -1 18 11 10 35 -11 35 -11 0 -17 5 -14 10 3 6 1 10 -5 10 -20 0 -6 45 18
55 25 11 28 25 10 43 -9 9 -9 15 0 24 9 9 12 8 12 -6 0 -14 5 -17 21 -13 23 6
55 -8 76 -33 11 -13 14 -13 22 0 7 10 7 16 1 18 -6 2 -7 8 -4 14 4 6 0 14 -7
19 -11 8 -8 14 14 32 15 13 27 28 27 34 0 6 9 15 20 18 11 3 25 15 31 26 8 15
14 18 23 9 8 -5 21 -8 30 -4 10 4 18 0 22 -10 3 -9 13 -16 22 -16 15 0 14 -2
-1 -17 -13 -13 -22 -15 -35 -7 -9 5 -24 9 -32 8 -8 0 -23 -2 -33 -2 -10 -1
-15 -7 -12 -12 3 -6 0 -13 -8 -16 -11 -4 -14 -20 -12 -65 2 -33 8 -65 13 -72
6 -7 12 -23 14 -37 2 -19 10 -26 31 -28 24 -3 27 0 27 27 0 17 5 31 11 31 6 0
9 6 6 14 -3 8 2 20 10 28 14 11 16 11 10 -4 -4 -12 0 -21 13 -28 27 -14 28
-14 25 30 -1 25 3 44 12 52 11 9 13 25 8 66 -6 52 -6 54 17 50 16 -2 23 -10
23 -24 1 -26 22 -54 41 -54 8 0 14 -4 14 -10 0 -5 -13 -10 -29 -10 -28 0 -29
-1 -21 -32 5 -17 6 -36 1 -42 -5 -6 -11 -24 -13 -39 -4 -22 0 -32 19 -44 27
-18 42 -11 23 12 -7 8 -8 15 -2 15 5 0 15 -6 21 -14 12 -14 81 -27 81 -16 0
15 -50 52 -63 47 -10 -4 -17 4 -21 25 -9 45 -8 52 8 38 8 -6 12 -19 9 -27 -4
-11 -3 -14 6 -9 6 4 19 2 27 -5 11 -9 18 -9 26 -1 7 7 22 12 33 12 28 0 59 34
51 56 -7 19 11 47 25 38 5 -3 9 2 9 11 0 19 -32 34 -38 17 -2 -8 -8 -8 -22 0
-14 9 -22 9 -34 -2 -9 -7 -19 -10 -23 -7 -8 9 17 37 33 37 8 0 14 7 14 16 0
11 -8 14 -27 12 -18 -2 -28 -9 -28 -20 0 -10 -6 -23 -13 -30 -8 -8 -12 -9 -12
-1 0 6 -7 19 -17 28 -14 14 -14 18 -2 26 8 4 15 13 15 19 1 5 2 15 3 22 1 7 8
5 19 -5 10 -10 22 -14 25 -10 4 3 7 1 7 -6 0 -7 10 -11 27 -9 19 2 27 10 30
27 4 29 30 61 49 61 7 0 11 6 8 13 -7 20 46 70 61 57 6 -5 15 -7 18 -3 4 3 7
1 7 -6 0 -9 8 -11 24 -7 31 8 38 -1 19 -24 -12 -13 -25 -17 -54 -13 -34 5 -39
3 -44 -20 -4 -14 -4 -31 0 -36 8 -14 38 -14 53 1 8 8 15 8 26 -1 10 -8 16 -9
21 -1 7 11 54 14 79 4 10 -4 16 -18 16 -35 0 -19 5 -29 15 -29 8 0 15 9 15 20
0 12 9 31 21 43 11 12 25 32 30 45 10 25 39 30 39 7 0 -27 15 -15 32 25 9 23
23 40 32 40 20 0 21 -29 2 -36 -12 -5 -11 -12 4 -47 15 -32 26 -44 51 -50 20
-5 36 -4 42 2 14 14 30 14 22 1 -3 -5 0 -7 8 -4 8 3 18 -5 25 -20 9 -21 8 -27
-6 -35 -21 -12 -7 -40 27 -53 18 -6 24 -4 28 10 5 21 43 27 43 6 0 -8 7 -14
15 -14 9 0 12 -6 8 -15 -4 -13 2 -15 29 -13 45 3 61 -9 54 -37 -7 -26 4 -38
27 -29 15 5 17 20 6 39 -16 26 -18 63 -5 68 19 8 26 -1 26 -34 0 -15 5 -31 11
-34 5 -4 9 -14 7 -23 -2 -10 3 -22 10 -28 13 -9 12 -14 -5 -30 -32 -30 -41
-56 -36 -101 4 -33 0 -46 -17 -63 -29 -29 -23 -65 10 -66 14 -1 35 -4 48 -8
28 -6 62 24 57 51 -2 10 -4 21 -4 25 -1 4 -9 9 -20 13 -13 4 -17 12 -13 30 2
14 -1 31 -7 38 -6 8 -8 17 -4 20 13 14 109 -17 117 -38 3 -8 20 -13 42 -12 21
1 39 -4 42 -11 2 -7 11 -12 20 -12 8 0 12 3 9 6 -9 10 12 46 24 39 5 -4 9 -2
9 2 0 18 -25 33 -56 33 -34 0 -52 28 -31 49 17 17 37 13 37 -9 0 -16 6 -19 36
-18 20 1 38 7 41 15 8 22 -14 63 -34 63 -17 1 -17 1 0 11 10 6 29 8 43 5 29
-8 32 9 5 24 -11 5 -22 19 -26 30 -5 15 -12 18 -36 13 l-31 -6 29 29 c26 28
57 35 82 19 15 -9 14 28 -1 43 -14 14 -62 16 -87 2 -16 -8 -36 -61 -32 -82 0
-5 -6 -8 -14 -8 -12 0 -14 8 -10 32 3 17 8 35 11 40 3 4 1 8 -5 8 -6 0 -7 8
-4 17 5 13 3 15 -13 9 -32 -13 -36 -12 -45 12 -7 19 -5 22 16 22 16 0 32 11
47 30 12 17 28 30 35 30 7 0 13 4 13 10 0 17 54 39 72 29 8 -5 33 -8 54 -7 22
0 49 -2 60 -6 18 -6 23 -3 31 21 5 15 9 214 9 448 l-1 420 -148 3 -147 3 -12
-28 c-39 -90 -108 -130 -239 -140 -46 -3 -90 -10 -96 -16 -18 -14 -18 -211 0
-225 8 -7 68 -13 143 -14 l129 -3 3 -217 2 -218 -190 0 c-160 0 -195 -3 -216
-16 -19 -13 -28 -14 -37 -5 -6 6 -20 11 -31 11 -17 0 -18 2 -4 18 77 85 89
255 24 335 -13 16 -45 39 -72 52 l-49 24 30 11 c132 50 149 254 31 358 -20 18
-49 35 -64 38 -15 4 -38 13 -52 20 -14 7 -60 18 -103 23 -102 14 -465 12 -542
-3z m-634 -980 c8 -9 -16 -46 -31 -46 -3 0 -2 21 4 46 6 26 13 38 14 28 2 -11
8 -23 13 -28z m1524 14 c3 -5 -1 -10 -9 -10 -9 0 -16 5 -16 10 0 6 4 10 9 10
6 0 13 -4 16 -10z m-1192 -46 c9 -3 13 -13 10 -25 -7 -25 -23 -25 -23 0 0 11
-6 22 -12 24 -9 4 -9 6 -1 6 6 1 18 -2 26 -5z m1292 -4 c-3 -5 -10 -10 -16
-10 -5 0 -9 5 -9 10 0 6 7 10 16 10 8 0 12 -4 9 -10z m-1739 -31 c3 -6 2 -15
-4 -21 -6 -6 -11 -2 -15 11 -5 22 7 29 19 10z m97 -15 c4 -4 5 -10 2 -14 -6
-9 -65 0 -65 11 0 10 53 12 63 3z m314 -14 c3 -11 13 -21 22 -21 19 -2 -35
-16 -64 -18 -18 0 -19 0 -2 10 9 5 17 19 17 29 0 26 20 26 27 0z m-234 -12
c-20 -22 -43 -24 -43 -2 0 8 4 13 9 9 5 -3 12 -2 15 3 3 5 12 9 21 9 13 0 13
-3 -2 -19z m107 -3 c0 -8 -4 -15 -10 -15 -5 0 -10 7 -10 15 0 8 5 15 10 15 6
0 10 -7 10 -15z m-47 -1 c8 -8 -3 -34 -14 -34 -5 0 -9 9 -9 20 0 19 11 26 23
14z m1832 -24 c3 -5 2 -10 -4 -10 -5 0 -13 5 -16 10 -3 6 -2 10 4 10 5 0 13
-4 16 -10z m-1885 -25 c0 -8 -4 -15 -10 -15 -5 0 -10 7 -10 15 0 8 5 15 10 15
6 0 10 -7 10 -15z"/>
<path d="M3480 1670 c-8 -6 -27 -7 -42 -4 -26 5 -27 4 -19 -17 4 -13 20 -26
35 -30 14 -4 24 -4 21 0 -2 5 7 13 20 19 14 7 25 18 25 27 0 17 -18 19 -40 5z"/>
<path d="M2305 1599 c-11 -17 1 -21 15 -4 8 9 8 15 2 15 -6 0 -14 -5 -17 -11z"/>
<path d="M3505 1600 c-4 -7 -1 -19 8 -27 19 -19 29 -3 12 20 -9 13 -15 15 -20
7z"/>
<path d="M787 1541 c3 -12 9 -21 14 -21 14 0 11 16 -5 29 -12 10 -13 8 -9 -8z"/>
<path d="M2320 1530 c-9 -16 -8 -22 5 -26 9 -4 14 -12 11 -19 -5 -14 20 -29
34 -20 10 6 1 45 -11 45 -5 0 -9 9 -9 20 0 26 -16 26 -30 0z"/>
<path d="M2750 1510 c0 -19 3 -21 12 -12 9 9 9 15 0 24 -9 9 -12 7 -12 -12z"/>
<path d="M3413 1515 c-3 -9 -3 -18 -1 -21 3 -3 8 4 11 16 6 23 -1 27 -10 5z"/>
<path d="M2240 1502 c0 -15 38 -44 44 -34 6 9 -4 20 -31 36 -7 4 -13 3 -13 -2z"/>
<path d="M1006 1493 c-4 -5 -13 -8 -19 -8 -7 0 -12 -12 -13 -26 -1 -21 3 -25
22 -21 25 4 49 62 26 62 -5 0 -12 -3 -16 -7z"/>
<path d="M885 1469 c-10 -15 1 -23 20 -15 9 3 13 10 10 16 -8 13 -22 13 -30
-1z"/>
<path d="M2200 1454 c0 -9 5 -14 12 -12 18 6 21 28 4 28 -9 0 -16 -7 -16 -16z"/>
<path d="M2670 1439 c0 -5 5 -7 10 -4 6 3 10 8 10 11 0 2 -4 4 -10 4 -5 0 -10
-5 -10 -11z"/>
<path d="M2268 1415 c6 -32 19 -40 38 -24 13 10 12 14 -2 30 -25 27 -42 24
-36 -6z"/>
<path d="M840 1410 c0 -13 5 -20 13 -17 6 2 12 10 12 17 0 7 -6 15 -12 18 -8
2 -13 -5 -13 -18z"/>
<path d="M2915 1381 c-3 -6 -15 -11 -25 -11 -23 0 -36 -18 -22 -32 6 -6 8 -17
5 -24 -3 -8 1 -14 10 -14 20 0 42 -27 26 -32 -9 -3 -9 -9 0 -26 14 -27 32 -28
54 -4 22 24 21 31 -5 42 -23 9 -23 9 2 10 38 1 48 12 43 47 -4 22 -12 33 -28
37 -13 3 -30 8 -38 12 -8 3 -18 1 -22 -5z"/>
<path d="M850 1360 c0 -11 7 -20 15 -20 17 0 18 2 9 24 -9 23 -24 20 -24 -4z"/>
<path d="M1637 1371 c-31 -3 -56 -10 -55 -16 2 -5 9 -9 16 -9 15 2 15 -1 0
-26 -10 -16 -10 -23 3 -35 14 -14 18 -14 40 4 22 18 23 20 6 27 -15 5 -16 9
-5 15 7 5 23 9 35 9 12 0 27 9 33 20 8 15 8 20 -2 18 -7 -1 -39 -4 -71 -7z"/>
<path d="M2215 1370 c-4 -6 -5 -12 -4 -13 2 -1 13 -7 25 -13 18 -11 20 -9 19
10 -2 23 -29 34 -40 16z"/>
<path d="M1843 1308 c-23 -33 -21 -57 2 -38 8 6 22 11 32 10 42 -5 45 0 21 29
-13 17 -25 30 -28 30 -3 0 -15 -14 -27 -31z"/>
<path d="M3492 1323 c5 -25 28 -28 28 -4 0 12 -6 21 -16 21 -9 0 -14 -7 -12
-17z"/>
<path d="M1693 1308 c-20 -34 -8 -51 43 -62 26 -6 32 -4 37 13 5 22 -7 29 -18
11 -4 -6 -11 -7 -17 -4 -7 4 -4 10 6 16 14 8 15 13 5 24 -14 17 -45 18 -56 2z"/>
<path d="M1982 1281 c2 -7 7 -12 11 -12 12 1 9 15 -3 20 -7 2 -11 -2 -8 -8z"/>
<path d="M2640 1265 c-10 -12 -10 -18 1 -32 20 -26 42 -42 57 -43 19 0 16 76
-4 84 -25 10 -41 7 -54 -9z"/>
<path d="M1540 1254 c0 -8 5 -12 10 -9 6 4 8 11 5 16 -9 14 -15 11 -15 -7z"/>
<path d="M2100 1256 c0 -9 7 -16 16 -16 9 0 14 5 12 12 -6 18 -28 21 -28 4z"/>
<path d="M2190 1260 c0 -5 5 -10 10 -10 6 0 10 5 10 10 0 6 -4 10 -10 10 -5 0
-10 -4 -10 -10z"/>
<path d="M1856 1233 c-8 -19 1 -30 29 -35 15 -2 19 2 17 17 -6 34 -36 46 -46
18z"/>
<path d="M3381 1241 c-7 -5 -12 -14 -9 -21 2 -7 10 -4 22 9 19 21 12 28 -13
12z"/>
<path d="M3155 1197 c-29 -62 -31 -97 -6 -97 11 0 23 -5 26 -10 11 -18 25 0
25 33 0 22 8 38 28 54 l27 23 -24 20 c-35 30 -54 24 -76 -23z"/>
<path d="M1230 1210 c0 -13 7 -20 20 -20 18 0 19 3 10 20 -6 11 -15 20 -20 20
-6 0 -10 -9 -10 -20z"/>
<path d="M1932 1208 c27 -21 49 -23 66 -6 20 20 14 24 -39 24 -50 0 -50 0 -27
-18z"/>
<path d="M2036 1222 c-2 -4 2 -16 10 -27 13 -17 16 -18 24 -5 5 9 5 19 -2 27
-12 15 -25 17 -32 5z"/>
<path d="M2130 1221 c0 -5 5 -13 10 -16 6 -3 10 -2 10 4 0 5 -4 13 -10 16 -5
3 -10 2 -10 -4z"/>
<path d="M1455 1209 c-4 -6 -5 -13 -2 -16 7 -7 27 6 27 18 0 12 -17 12 -25 -2z"/>
<path d="M3470 1195 c0 -17 5 -25 13 -22 6 2 12 12 12 22 0 10 -6 20 -12 23
-8 2 -13 -6 -13 -23z"/>
<path d="M1755 1199 c-4 -6 -5 -13 -2 -16 7 -7 27 6 27 18 0 12 -17 12 -25 -2z"/>
<path d="M3332 1198 c-18 -18 -14 -38 7 -38 27 0 37 19 19 36 -11 11 -16 12
-26 2z"/>
<path d="M1839 1177 c15 -19 41 -23 41 -7 0 6 -4 10 -9 10 -5 0 -18 3 -28 7
-16 6 -16 5 -4 -10z"/>
<path d="M1762 1164 c-13 -9 -30 -13 -39 -10 -18 7 -43 -10 -43 -30 0 -23 56
-16 86 9 33 29 30 55 -4 31z"/>
<path d="M2055 1160 c-3 -5 1 -10 10 -10 9 0 13 5 10 10 -3 6 -8 10 -10 10 -2
0 -7 -4 -10 -10z"/>
<path d="M1450 1156 c0 -2 7 -7 16 -10 8 -3 12 -2 9 4 -6 10 -25 14 -25 6z"/>
<path d="M1314 1139 c-3 -6 0 -18 9 -26 13 -13 14 -12 10 11 -6 29 -9 31 -19
15z"/>
<path d="M1240 1124 c0 -8 5 -12 10 -9 6 4 8 11 5 16 -9 14 -15 11 -15 -7z"/>
<path d="M1507 1133 c-13 -13 -7 -32 14 -44 29 -15 45 8 22 33 -17 19 -26 22
-36 11z"/>
<path d="M1826 1131 c-3 -5 1 -14 8 -20 16 -13 32 2 21 19 -8 12 -22 13 -29 1z"/>
<path d="M3467 1134 c-14 -14 -6 -24 19 -24 16 0 24 5 22 13 -5 14 -31 21 -41
11z"/>
<path d="M1252 1100 c-23 -19 -22 -40 2 -40 16 0 46 32 46 48 0 18 -22 14 -48
-8z"/>
<path d="M2032 1108 c-7 -7 -12 -18 -12 -26 0 -8 -6 -12 -15 -8 -18 7 -19 -5
-2 -26 15 -21 82 -34 92 -18 4 6 9 24 12 41 3 24 0 31 -22 39 -34 13 -38 13
-53 -2z"/>
<path d="M1860 1091 c0 -5 7 -14 15 -21 13 -10 15 -9 15 9 0 12 -6 21 -15 21
-8 0 -15 -4 -15 -9z"/>
<path d="M1750 1075 c0 -8 7 -15 15 -15 8 0 15 7 15 15 0 8 -7 15 -15 15 -8 0
-15 -7 -15 -15z"/>
<path d="M2370 1075 c0 -8 7 -15 15 -15 8 0 15 7 15 15 0 8 -7 15 -15 15 -8 0
-15 -7 -15 -15z"/>
<path d="M1186 1062 c-3 -6 -1 -14 5 -17 15 -10 25 3 12 16 -7 7 -13 7 -17 1z"/>
<path d="M1780 1042 c0 -5 7 -13 16 -16 10 -4 14 -1 12 6 -5 15 -28 23 -28 10z"/>
<path d="M2210 1041 c0 -5 -9 -11 -21 -14 -32 -9 -22 -53 11 -49 33 4 39 12
33 45 -5 25 -23 39 -23 18z"/>
<path d="M3366 1037 c3 -10 9 -15 12 -12 3 3 0 11 -7 18 -10 9 -11 8 -5 -6z"/>
<path d="M1400 1030 c0 -5 7 -10 15 -10 8 0 15 5 15 10 0 6 -7 10 -15 10 -8 0
-15 -4 -15 -10z"/>
<path d="M2660 1025 c0 -8 9 -15 20 -15 11 0 20 7 20 15 0 8 -9 15 -20 15 -11
0 -20 -7 -20 -15z"/>
<path d="M3420 1024 c0 -8 5 -12 10 -9 6 4 8 11 5 16 -9 14 -15 11 -15 -7z"/>
<path d="M3360 994 c0 -14 3 -14 15 -4 8 7 15 14 15 16 0 2 -7 4 -15 4 -8 0
-15 -7 -15 -16z"/>
<path d="M1742 991 c2 -7 7 -12 11 -12 12 1 9 15 -3 20 -7 2 -11 -2 -8 -8z"/>
<path d="M1960 991 c-28 -5 -36 -11 -38 -32 -6 -54 67 -65 90 -13 16 34 -5 52
-52 45z"/>
<path d="M3420 990 c0 -5 4 -10 9 -10 6 0 13 5 16 10 3 6 -1 10 -9 10 -9 0
-16 -4 -16 -10z"/>
<path d="M880 975 c0 -9 9 -15 25 -15 16 0 25 6 25 15 0 9 -9 15 -25 15 -16 0
-25 -6 -25 -15z"/>
<path d="M1680 980 c0 -5 5 -10 10 -10 6 0 10 5 10 10 0 6 -4 10 -10 10 -5 0
-10 -4 -10 -10z"/>
<path d="M1715 980 c-3 -5 -1 -10 4 -10 6 0 11 5 11 10 0 6 -2 10 -4 10 -3 0
-8 -4 -11 -10z"/>
<path d="M1780 981 c0 -9 24 -21 41 -21 5 0 9 7 9 15 0 9 -9 15 -25 15 -14 0
-25 -4 -25 -9z"/>
<path d="M2820 980 c0 -5 9 -10 21 -10 11 0 17 5 14 10 -3 6 -13 10 -21 10 -8
0 -14 -4 -14 -10z"/>
<path d="M2941 969 c-6 -17 -5 -28 4 -38 17 -18 35 -6 30 21 -7 36 -23 44 -34
17z"/>
<path d="M2705 970 c-3 -5 1 -10 10 -10 9 0 13 5 10 10 -3 6 -8 10 -10 10 -2
0 -7 -4 -10 -10z"/>
<path d="M1240 950 c0 -13 5 -20 13 -17 6 2 12 10 12 17 0 7 -6 15 -12 18 -8
2 -13 -5 -13 -18z"/>
<path d="M2050 962 c0 -5 10 -17 23 -28 22 -19 22 -19 4 2 -9 11 -14 24 -10
27 3 4 1 7 -5 7 -7 0 -12 -4 -12 -8z"/>
<path d="M1537 943 c-4 -3 -7 -11 -7 -17 0 -6 5 -5 12 2 6 6 9 14 7 17 -3 3
-9 2 -12 -2z"/>
<path d="M2260 930 c0 -5 5 -10 11 -10 5 0 7 5 4 10 -3 6 -8 10 -11 10 -2 0
-4 -4 -4 -10z"/>
<path d="M1755 900 c-3 -5 -2 -10 4 -10 5 0 13 5 16 10 3 6 2 10 -4 10 -5 0
-13 -4 -16 -10z"/>
<path d="M3085 900 c4 -6 11 -8 16 -5 14 9 11 15 -7 15 -8 0 -12 -5 -9 -10z"/>
<path d="M1703 865 c-15 -16 -7 -45 12 -45 16 0 26 25 19 45 -7 18 -15 18 -31
0z"/>
<path d="M2910 860 c0 -5 5 -10 11 -10 5 0 7 5 4 10 -3 6 -8 10 -11 10 -2 0
-4 -4 -4 -10z"/>
<path d="M2152 805 c1 -16 9 -30 16 -33 18 -6 15 33 -4 49 -14 11 -15 9 -12
-16z"/>
<path d="M2352 795 c2 -14 8 -26 13 -26 6 0 11 12 13 26 2 18 -1 25 -13 25
-12 0 -15 -7 -13 -25z"/>
<path d="M1240 800 c0 -5 5 -10 11 -10 5 0 7 5 4 10 -3 6 -8 10 -11 10 -2 0
-4 -4 -4 -10z"/>
<path d="M1775 800 c-3 -6 1 -13 10 -16 19 -8 30 0 20 15 -8 14 -22 14 -30 1z"/>
<path d="M2280 780 c-9 -6 -10 -10 -3 -10 6 0 15 5 18 10 8 12 4 12 -15 0z"/>
<path d="M1754 764 c3 -9 6 -20 6 -26 0 -14 43 -6 48 10 2 7 -5 12 -17 12 -12
0 -21 5 -21 10 0 6 -5 10 -11 10 -6 0 -8 -7 -5 -16z"/>
<path d="M2560 769 c0 -5 5 -7 10 -4 6 3 10 8 10 11 0 2 -4 4 -10 4 -5 0 -10
-5 -10 -11z"/>
<path d="M2810 746 c0 -17 24 -38 33 -29 15 15 6 43 -13 43 -11 0 -20 -6 -20
-14z"/>
<path d="M2765 641 c-3 -6 -2 -18 3 -27 7 -13 10 -13 20 -1 10 11 9 17 -2 26
-10 8 -16 9 -21 2z"/>
<path d="M2050 615 c0 -9 5 -15 11 -13 6 2 11 8 11 13 0 5 -5 11 -11 13 -6 2
-11 -4 -11 -13z"/>
<path d="M1702 498 c-6 -8 -7 -19 -3 -26 6 -10 11 -9 21 3 9 11 10 19 3 26 -7
7 -14 5 -21 -3z"/>
<path d="M280 445 c0 -15 50 -74 55 -65 5 8 11 8 21 -1 11 -9 20 -5 44 21 28
30 58 36 53 11 -2 -6 -4 -17 -5 -23 -2 -10 26 -13 110 -15 l112 -2 0 25 c0 13
5 24 10 24 6 0 10 5 10 11 0 6 -16 10 -37 9 -21 -1 -40 -1 -43 0 -3 1 -56 4
-117 5 -111 4 -113 3 -113 -18 0 -17 -2 -19 -9 -7 -6 8 -7 18 -5 22 3 4 -15 8
-40 8 -25 0 -46 -2 -46 -5z m300 -41 c0 -11 -5 -14 -16 -10 -9 3 -22 6 -30 6
-27 0 -14 16 16 18 22 2 30 -2 30 -14z"/>
<path d="M700 441 c0 -6 5 -13 10 -16 16 -10 12 -35 -6 -35 -8 0 -12 -4 -9
-10 9 -14 89 -12 103 2 20 20 14 55 -10 62 -35 9 -88 7 -88 -3z m90 -38 c0 -8
-13 -13 -30 -13 -31 0 -39 17 -19 37 14 14 49 -4 49 -24z"/>
<path d="M831 429 c8 -15 8 -24 0 -32 -6 -6 -11 -15 -11 -20 0 -14 343 -4 348
11 2 6 -4 12 -13 12 -9 0 -14 4 -11 8 10 16 -11 31 -51 36 -40 5 -65 -6 -43
-19 18 -11 10 -25 -15 -25 -27 0 -32 9 -13 28 9 9 5 12 -20 14 -18 0 -38 1
-44 2 -8 1 -12 -9 -10 -26 4 -30 -6 -35 -27 -15 -11 10 -14 10 -18 0 -3 -7
-14 -13 -25 -13 -17 0 -20 5 -14 30 5 27 3 30 -20 30 -22 0 -24 -2 -13 -21z"/>
<path d="M2442 418 c3 -7 13 -15 22 -16 12 -3 17 1 14 10 -3 7 -13 15 -22 16
-12 3 -17 -1 -14 -10z"/>
</g>
</svg>
